<svg width="738" height="752" viewBox="0 0 738 752" fill="none" xmlns="http://www.w3.org/2000/svg">
<path d="M382.5 637C532.998 637 655 519.922 655 375.5C655 231.078 532.998 114 382.5 114C232.002 114 110 231.078 110 375.5C110 519.922 232.002 637 382.5 637Z" stroke="#33CFC6" stroke-width="2" stroke-miterlimit="10"/>
<g filter="url(#filter0_d_32_28)">
<path d="M496.889 139.004C475.967 134.486 454.562 132.617 433.175 133.443C404.56 134.569 376.349 140.605 349.77 151.288C330.466 159.068 298.116 172.488 268.58 204.075C227.077 248.468 218.179 299.798 215.044 319.434C206.093 375.577 220.073 418.993 223.969 430.275C237.074 468.168 260.203 501.784 290.885 527.535C339.685 568.158 391.593 574.614 415.779 577.301C439.965 579.988 506.321 586.311 570.076 544.672C592.697 529.792 612.343 510.805 628 488.69C617.77 512.52 604.239 534.786 587.805 554.831C576.663 568.802 563.935 581.426 549.878 592.446C529.921 607.801 507.531 619.685 483.642 627.602C472.303 631.612 420.248 648.802 351.571 639.044C322.102 634.86 251.624 623.792 190.511 563.72C172.181 545.755 123.168 492.286 112.002 407.003C109.867 390.682 99.1949 295.587 162.416 212.483C215.524 142.653 287.216 123.351 307.574 118.164C400.731 94.4908 476.305 128.818 496.889 139.004Z" fill="#33CFC6"/>
</g>
<path d="M476 131L473 269" stroke="#33CFC6" stroke-width="4" stroke-miterlimit="10"/>
<path d="M490.463 319L473.474 310.11L456.471 318.96L459.743 300.158L446 286.822L465.005 284.096L473.526 267L482.008 284.123L501 286.889L487.243 300.198L490.463 319Z" fill="#33CFC6"/>
<path d="M298 151L295 358" stroke="#33CFC6" stroke-width="4" stroke-miterlimit="10"/>
<path d="M394 118V302" stroke="#33CFC6" stroke-width="4" stroke-miterlimit="10"/>
<path d="M414.689 318.507C414.099 316.727 413.442 315.067 413.053 314.123C411.774 311.467 409.948 309.105 407.692 307.19C404.707 304.769 401.144 303.15 397.345 302.487C393.981 301.812 390.512 301.839 387.159 302.567C382.902 303.399 379.014 305.525 376.034 308.651C375.119 309.659 374.32 310.764 373.648 311.945C370.855 311.42 367.966 311.749 365.365 312.888C363.363 313.578 361.534 314.688 360.004 316.143C358.417 317.698 357.227 319.606 356.533 321.708C355.368 321.931 354.228 322.265 353.128 322.704C351.685 323.249 350.33 324.001 349.107 324.936C348.152 325.654 347.284 326.478 346.52 327.393C344.752 329.605 343.618 332.248 343.237 335.045C342.881 337.044 342.927 339.093 343.371 341.075C344.241 344.469 346.214 347.485 348.987 349.656C350.527 350.987 352.317 352.002 354.254 352.645C355.831 353.136 357.48 353.365 359.133 353.323C376.691 353.097 394.236 353.774 411.78 354H412.853H414.756C415.912 353.969 417.058 353.777 418.16 353.429C420.532 352.688 422.669 351.352 424.366 349.55C426.522 347.258 428.002 344.423 428.642 341.354C429.283 338.285 429.06 335.101 427.998 332.149C427.196 330.177 425.991 328.391 424.46 326.902C422.506 324.972 420.124 323.521 417.503 322.665L415.6 322.213C415.6 321.868 415.52 321.363 415.412 320.765C415.229 319.995 414.987 319.241 414.689 318.507Z" fill="#33CFC6"/>
<path d="M387.233 363L384.722 368.478C384.36 369.158 384.124 369.95 384.038 370.784C383.951 371.618 384.015 372.468 384.224 373.26C384.434 373.972 384.774 374.599 385.212 375.078C385.65 375.558 386.171 375.875 386.725 375.999C387.37 376.015 388.004 375.761 388.542 375.272C389.079 374.782 389.495 374.081 389.734 373.26C389.973 372.476 390.053 371.617 389.965 370.776C389.878 369.934 389.626 369.14 389.236 368.478L387.233 363Z" fill="#33CFC6"/>
<path d="M373.772 376L370.843 381.057C370.419 381.685 370.145 382.416 370.044 383.185C369.943 383.955 370.017 384.74 370.262 385.471C370.506 386.128 370.903 386.706 371.414 387.149C371.925 387.592 372.533 387.885 373.179 387.999C373.932 388.014 374.671 387.779 375.299 387.328C375.926 386.876 376.411 386.228 376.689 385.471C376.969 384.747 377.062 383.954 376.96 383.177C376.857 382.4 376.563 381.668 376.109 381.057L373.772 376Z" fill="#33CFC6"/>
<path d="M400.233 376L397.722 381.057C397.36 381.685 397.124 382.416 397.038 383.185C396.951 383.955 397.015 384.74 397.224 385.471C397.434 386.128 397.774 386.706 398.212 387.149C398.65 387.592 399.171 387.885 399.725 387.999C400.37 388.014 401.004 387.779 401.542 387.328C402.079 386.876 402.495 386.228 402.734 385.471C402.973 384.747 403.053 383.954 402.965 383.177C402.878 382.4 402.626 381.668 402.236 381.057L400.233 376Z" fill="#33CFC6"/>
<path d="M362.311 363L358.963 368.478C358.479 369.158 358.166 369.95 358.05 370.784C357.934 371.618 358.02 372.468 358.299 373.26C358.579 373.972 359.032 374.599 359.616 375.078C360.2 375.558 360.895 375.875 361.633 375.999C362.494 376.015 363.339 375.761 364.056 375.272C364.772 374.782 365.327 374.081 365.645 373.26C365.964 372.476 366.071 371.617 365.954 370.776C365.837 369.934 365.501 369.14 364.981 368.478L362.311 363Z" fill="#33CFC6"/>
<path d="M413.772 363L410.843 368.478C410.419 369.158 410.145 369.95 410.044 370.784C409.943 371.618 410.017 372.468 410.262 373.26C410.506 373.972 410.903 374.599 411.414 375.078C411.925 375.558 412.533 375.875 413.179 375.999C413.932 376.015 414.671 375.761 415.299 375.272C415.926 374.782 416.411 374.081 416.689 373.26C416.969 372.476 417.062 371.617 416.96 370.776C416.857 369.934 416.563 369.14 416.109 368.478L413.772 363Z" fill="#33CFC6"/>
<path d="M324.785 447L295.453 431.075L266.069 446.933L271.72 413.306L248 389.458L280.828 384.581L295.533 354L310.185 384.621L343 389.565L319.227 413.359L324.785 447Z" fill="#33CFC6"/>
<defs>
<filter id="filter0_d_32_28" x="0" y="0" width="738" height="752" filterUnits="userSpaceOnUse" color-interpolation-filters="sRGB">
<feFlood flood-opacity="0" result="BackgroundImageFix"/>
<feColorMatrix in="SourceAlpha" type="matrix" values="0 0 0 0 0 0 0 0 0 0 0 0 0 0 0 0 0 0 127 0" result="hardAlpha"/>
<feOffset/>
<feGaussianBlur stdDeviation="55"/>
<feComposite in2="hardAlpha" operator="out"/>
<feColorMatrix type="matrix" values="0 0 0 0 0.0676042 0 0 0 0 0.7375 0 0 0 0 0.697307 0 0 0 1 0"/>
<feBlend mode="normal" in2="BackgroundImageFix" result="effect1_dropShadow_32_28"/>
<feBlend mode="normal" in="SourceGraphic" in2="effect1_dropShadow_32_28" result="shape"/>
</filter>
</defs>
</svg>
