<svg width="84" height="80" viewBox="0 0 84 80" fill="none" xmlns="http://www.w3.org/2000/svg">
<rect x="3" y="3" width="77.7854" height="74.4034" rx="5" stroke="#33CFC6" stroke-width="5"/>
<path d="M61.4198 22.8373C60.8781 22.3867 60.2245 22.0914 59.5283 21.9828C58.8322 21.8742 58.1196 21.9563 57.4664 22.2205L23.3744 35.9848C22.6453 36.2847 22.0247 36.7993 21.5949 37.4603C21.1652 38.1212 20.9466 38.8972 20.9681 39.6853C20.9897 40.4734 21.2504 41.2363 21.7157 41.8727C22.181 42.5091 22.8288 42.989 23.5732 43.2487L30.4693 45.6471L34.313 58.3579C34.3652 58.5277 34.441 58.6894 34.5382 58.8381C34.5529 58.8609 34.5737 58.8779 34.5894 58.9001C34.7016 59.0567 34.8373 59.1951 34.9916 59.3105C35.0355 59.344 35.0775 59.3753 35.1244 59.405C35.305 59.5249 35.505 59.6125 35.7156 59.664L35.7381 59.6659L35.7508 59.6713C35.8774 59.6971 36.0062 59.7102 36.1354 59.7103C36.1478 59.7103 36.1589 59.7044 36.1712 59.7042C36.3661 59.7008 36.5593 59.6672 36.744 59.6047C36.7869 59.59 36.8237 59.5656 36.8654 59.5479C37.0031 59.4908 37.1335 59.4177 37.254 59.33C37.3505 59.2487 37.4471 59.1674 37.5436 59.0861L42.6841 53.4106L50.3511 59.3499C51.0261 59.8754 51.8569 60.1611 52.7124 60.1618C53.6087 60.1606 54.4774 59.8514 55.1728 59.2858C55.8683 58.7203 56.3481 57.9329 56.532 57.0556L62.7388 26.5863C62.8794 25.9005 62.831 25.1894 62.5987 24.5291C62.3663 23.8687 61.9588 23.2839 61.4198 22.8373ZM36.8897 46.2527C36.626 46.5154 36.4456 46.8502 36.3714 47.215L35.7826 50.0762L34.2911 45.1432L42.0246 41.116L36.8897 46.2527ZM52.6827 56.3422L43.6223 49.3235C43.2432 49.0306 42.7677 48.8913 42.2905 48.9333C41.8133 48.9753 41.3695 49.1955 41.0474 49.5502L39.4011 51.3673L39.9829 48.5395L53.4573 35.0651C53.779 34.7439 53.9749 34.3182 54.0097 33.865C54.0445 33.4118 53.9158 32.9611 53.647 32.5946C53.3782 32.228 52.987 31.9699 52.5443 31.8669C52.1015 31.764 51.6366 31.823 51.2336 32.0332L31.8956 42.1017L24.8105 39.509L59.0121 25.8264L52.6827 56.3422Z" fill="#33CFC6"/>
</svg>
